# xmcd CD database file
#
# Track frame offsets:
#	150
#	3187
#	22925
#	44957
#	67077
#	88050
#	114712
#	136112
#	158555
#	180300
#	207045
#
# Disc length: 3019 seconds
#
# Revision: 0
# Processed by: cddbd v1.5.1PL0 Copyright (c) Steve Scherf et al.
# Submitted via: CDex 1.51
#
DISCID=890bc90b
DTITLE=和久井映見 - Dearest
DYEAR=1996
DGENRE=Pop
TTITLE0=離れても-introduction-
TTITLE1=いつか忘れましょう
TTITLE2=コスモスの咲く道
TTITLE3=Living In The Town
TTITLE4=ひとり旅
TTITLE5=海辺の休日
TTITLE6=Sweet Sweet Holiday
TTITLE7=毎日会いたい-album mix-
TTITLE8=遠い空に
TTITLE9=HOPE-新しい未来のために-
TTITLE10=忘れないで
EXTD=YEAR: 1996
EXTT0=
EXTT1=
EXTT2=
EXTT3=
EXTT4=
EXTT5=
EXTT6=
EXTT7=
EXTT8=
EXTT9=
EXTT10=
PLAYORDER=
